HIERARCHY
ROOT Hips
{
	OFFSET -0.001795 -0.223333 0.028219
	CHANNELS 6 Xposition Yposition Zposition Zrotation Yrotation Xrotation 
	JOINT LeftUpLeg
	{
		OFFSET 0.069520 -0.091406 -0.006815
		CHANNELS 3 Zrotation Yrotation Xrotation
		JOINT LeftLeg
		{
			OFFSET 0.034277 -0.375199 -0.004496
			CHANNELS 3 Zrotation Yrotation Xrotation
			JOINT LeftFoot
			{
				OFFSET -0.013596 -0.397961 -0.043693
				CHANNELS 3 Zrotation Yrotation Xrotation
				JOINT LeftToe
				{
					OFFSET 0.026358 -0.055791 0.119288
					CHANNELS 3 Zrotation Yrotation Xrotation
					End Site
					{
						OFFSET 0.000000 0.000000 0.000000
					}
				}
			}
		}
	}
	JOINT RightUpLeg
	{
		OFFSET -0.067670 -0.090522 -0.004320
		CHANNELS 3 Zrotation Yrotation Xrotation
		JOINT RightLeg
		{
			OFFSET -0.038290 -0.382569 -0.008850
			CHANNELS 3 Zrotation Yrotation Xrotation
			JOINT RightFoot
			{
				OFFSET 0.015774 -0.398415 -0.042312
				CHANNELS 3 Zrotation Yrotation Xrotation
				JOINT RightToe
				{
					OFFSET -0.025372 -0.048144 0.123348
					CHANNELS 3 Zrotation Yrotation Xrotation
					End Site
					{
						OFFSET 0.000000 0.000000 0.000000
					}
				}
			}
		}
	}
	JOINT Spine
	{
		OFFSET -0.002533 0.108963 -0.026696
		CHANNELS 3 Zrotation Yrotation Xrotation
		JOINT Spine1
		{
			OFFSET 0.005487 0.135180 0.001092
			CHANNELS 3 Zrotation Yrotation Xrotation
			JOINT Spine2
			{
				OFFSET 0.001457 0.052922 0.025425
				CHANNELS 3 Zrotation Yrotation Xrotation
				JOINT Neck
				{
					OFFSET -0.002778 0.213870 -0.042857
					CHANNELS 3 Zrotation Yrotation Xrotation
					JOINT Head
					{
						OFFSET 0.005152 0.064970 0.051349
						CHANNELS 3 Zrotation Yrotation Xrotation
						End Site
						{
							OFFSET 0.000000 0.000000 0.000000
						}
					}
				}
				JOINT LeftShoulder
				{
					OFFSET 0.078845 0.121749 -0.034090
					CHANNELS 3 Zrotation Yrotation Xrotation
					JOINT LeftArm
					{
						OFFSET 0.090977 0.030469 -0.008868
						CHANNELS 3 Zrotation Yrotation Xrotation
						JOINT LeftForeArm
						{
							OFFSET 0.259612 -0.012772 -0.027456
							CHANNELS 3 Zrotation Yrotation Xrotation
							JOINT LeftHand
							{
								OFFSET 0.249234 0.008986 -0.001171
								CHANNELS 3 Zrotation Yrotation Xrotation
								End Site
								{
									OFFSET 0.000000 0.000000 0.000000
								}
							}
						}
					}
				}
				JOINT RightShoulder
				{
					OFFSET -0.081759 0.118833 -0.038615
					CHANNELS 3 Zrotation Yrotation Xrotation
					JOINT RightArm
					{
						OFFSET -0.096012 0.032551 -0.009143
						CHANNELS 3 Zrotation Yrotation Xrotation
						JOINT RightForeArm
						{
							OFFSET -0.253742 -0.013329 -0.021401
							CHANNELS 3 Zrotation Yrotation Xrotation
							JOINT RightHand
							{
								OFFSET -0.255298 0.007772 -0.005559
								CHANNELS 3 Zrotation Yrotation Xrotation
								End Site
								{
									OFFSET 0.000000 0.000000 0.000000
								}
							}
						}
					}
				}
			}
		}
	}
}
MOTION
Frames: 5
Frame Time: 0.050000
-0.015071 0.287071 0.080934 -1.446472 -11.689701 -14.377358 22.341034 19.152389 -86.492290 -12.004233 36.159665 145.215743 9.626121 36.664829 -44.233395 0.000000 0.000000 0.000000 -32.559884 -11.528150 -92.845824 25.553576 -45.124662 119.296941 -10.154970 -36.560222 -34.202187 0.000000 0.000000 0.000000 9.404103 -5.890291 83.711514 -4.768074 1.451203 -32.958916 -4.890279 3.559772 27.908380 21.769105 -18.686612 -9.474238 0.000000 0.000000 0.000000 7.490272 -31.456768 7.486597 1.687645 -21.759097 -1.147952 75.074535 -49.100982 -39.513912 0.000000 0.000000 0.000000 5.386335 17.229971 6.326108 -5.546158 32.611664 -2.735850 -76.792205 53.704646 -42.618455 0.000000 0.000000 0.000000 
-0.015539 0.277760 0.079888 -1.220013 -11.850216 -14.721933 21.917972 19.284398 -87.850834 -11.468598 36.022437 146.807251 9.537819 36.743138 -44.032571 0.000000 0.000000 0.000000 -33.082855 -12.005059 -93.455915 25.926373 -46.446533 119.776195 -9.950806 -36.617504 -35.709021 0.000000 0.000000 0.000000 9.393825 -5.815877 84.188580 -4.873184 1.465921 -32.909991 -4.737652 3.500428 28.383884 21.605905 -19.089505 -8.457503 0.000000 0.000000 0.000000 7.751823 -32.076214 7.484415 1.810391 -21.553742 -1.117052 74.708764 -48.189155 -38.563647 0.000000 0.000000 0.000000 5.224101 17.965445 6.542933 -6.386249 32.052716 -2.784585 -73.388479 52.117606 -39.167482 0.000000 0.000000 0.000000 
-0.016126 0.268875 0.078866 -0.868161 -12.302895 -14.901337 21.703075 19.884749 -89.188963 -11.394239 37.232577 147.886344 9.405208 37.999685 -44.296428 0.000000 0.000000 0.000000 -33.700092 -12.388708 -94.307717 26.445397 -47.734862 119.791299 -9.827221 -36.752424 -37.039175 0.000000 0.000000 0.000000 9.116483 -5.338221 84.752922 -4.578596 1.389089 -32.875024 -5.040184 3.822059 28.389275 21.037454 -18.791430 -7.742760 0.000000 0.000000 0.000000 8.683022 -32.011614 7.248064 1.618158 -21.929477 -1.154278 75.010493 -47.180269 -38.076015 0.000000 0.000000 0.000000 5.406517 18.299900 6.711748 -6.743610 31.731054 -2.774933 -71.252112 50.482698 -36.444623 0.000000 0.000000 0.000000 
-0.017023 0.261497 0.078052 -0.753772 -12.335470 -15.187114 21.321045 19.870707 -90.334040 -11.086970 37.729582 149.051996 9.255667 38.522216 -44.801646 0.000000 0.000000 0.000000 -34.198056 -12.920751 -94.685008 27.556949 -49.008253 118.827144 -9.636331 -37.062693 -38.425096 0.000000 0.000000 0.000000 8.911560 -5.168248 85.210395 -4.214316 1.321253 -32.762034 -5.260818 4.082570 28.357499 20.774829 -18.825196 -6.997769 0.000000 0.000000 0.000000 9.183005 -32.716173 7.251194 2.072493 -21.927001 -1.170688 74.848537 -45.831912 -37.053108 0.000000 0.000000 0.000000 5.155152 18.626177 6.782534 -6.866159 31.480624 -2.729298 -69.632511 48.714723 -34.040694 0.000000 0.000000 0.000000 
-0.018386 0.256760 0.077476 -0.680031 -12.411952 -15.393802 21.153820 19.973135 -91.015801 -10.866592 37.960417 149.826900 9.241699 39.025723 -44.605143 0.000000 0.000000 0.000000 -34.359895 -13.054937 -94.886482 28.219229 -50.311719 118.845655 -9.724784 -38.056646 -38.453538 0.000000 0.000000 0.000000 8.619421 -4.899683 85.582775 -4.332869 1.334902 -32.653714 -5.335480 4.101501 28.337606 20.461179 -18.731469 -6.514684 0.000000 0.000000 0.000000 9.839077 -33.074278 7.131247 2.519256 -21.860320 -1.181077 74.238852 -44.881262 -35.978471 0.000000 0.000000 0.000000 5.155605 19.123068 6.950781 -7.387625 31.141549 -2.757371 -68.168669 46.832597 -31.846303 0.000000 0.000000 0.000000 
